<svg width="994" height="591" viewBox="0 0 994 591" fill="none" xmlns="http://www.w3.org/2000/svg">
<path fill-rule="evenodd" clip-rule="evenodd" d="M377.476 167.908C377.476 173.015 377.733 178.067 378.234 183.057C376.084 183.004 373.924 182.977 371.757 182.977C283.747 182.977 209.156 227.351 183.444 288.712C173.691 287.133 163.604 286.305 153.278 286.305C68.625 286.305 0 341.964 0 410.622C0 479.28 68.625 534.939 153.278 534.939C191.664 534.939 226.754 523.495 253.645 504.584C275.645 539.863 320.278 564 371.757 564C419.383 564 461.149 543.341 484.555 512.313C509.301 526.662 538.446 534.939 569.646 534.939C609.613 534.939 646.208 521.357 674.503 498.83C703.881 538.238 752.529 564 807.571 564C897.278 564 970 495.571 970 411.16C970 345.266 925.684 289.111 863.566 267.645C855.849 207.993 811.61 158.947 752.524 140.902C738.004 61.0083 660.118 0 566.215 0C461.977 0 377.476 75.1752 377.476 167.908Z" fill="#312D69"/>
<path fill-rule="evenodd" clip-rule="evenodd" d="M401.476 194.908C401.476 200.015 401.733 205.067 402.234 210.057C400.084 210.004 397.924 209.977 395.757 209.977C307.747 209.977 233.156 254.351 207.444 315.712C197.691 314.133 187.604 313.305 177.278 313.305C92.625 313.305 24 368.964 24 437.622C24 506.28 92.625 561.939 177.278 561.939C215.664 561.939 250.754 550.495 277.645 531.584C299.645 566.863 344.278 591 395.757 591C443.383 591 485.149 570.341 508.555 539.313C533.301 553.662 562.446 561.939 593.646 561.939C633.613 561.939 670.208 548.357 698.503 525.83C727.881 565.238 776.529 591 831.571 591C921.278 591 994 522.571 994 438.16C994 372.266 949.684 316.111 887.566 294.645C879.849 234.993 835.61 185.947 776.524 167.902C762.004 88.0083 684.118 27 590.215 27C485.977 27 401.476 102.175 401.476 194.908Z" fill="#413B7F"/>
</svg>
